<svg class="icon icon-prev" aria-hidden="true" focusable="false" width="20" height="18" viewBox="0 0 20 18" fill="none" xmlns="http://www.w3.org/2000/svg">
<path d="M7.29388 1.15469C7.81633 0.632246 8.65714 0.632246 9.17959 1.15469C9.44082 1.41592 9.57143 1.7547 9.57143 2.09755C9.57143 2.44041 9.44082 2.77918 9.17959 3.04041L4.55102 7.6649L18.6653 7.6649C19.4 7.6649 20 8.26082 20 8.99959C20 9.73837 19.4041 10.3343 18.6653 10.3343L4.55102 10.3343L9.17959 14.9588C9.70204 15.4812 9.70204 16.322 9.17959 16.8445C8.65714 17.3669 7.81633 17.3669 7.29388 16.8445L0.391837 9.94245C0.138776 9.69347 9.39875e-08 9.35469 9.82221e-08 8.99959C1.02457e-07 8.64449 0.138776 8.30571 0.391837 8.05674L7.29388 1.15469Z" fill="currentColor"/>
</svg>
