<svg class="icon icon-next" aria-hidden="true" focusable="false" width="20" height="18" viewBox="0 0 20 18" fill="none" xmlns="http://www.w3.org/2000/svg">
<path d="M12.7061 16.8453C12.1837 17.3678 11.3429 17.3678 10.8204 16.8453C10.5592 16.5841 10.4286 16.2453 10.4286 15.9024C10.4286 15.5596 10.5592 15.2208 10.8204 14.9596L15.449 10.3351L1.33469 10.3351C0.6 10.3351 -3.92332e-07 9.73918 -3.60039e-07 9.00041C-3.27746e-07 8.26163 0.595918 7.66571 1.33469 7.66571L15.449 7.66571L10.8204 3.04122C10.298 2.51877 10.298 1.67796 10.8204 1.15551C11.3429 0.633059 12.1837 0.633059 12.7061 1.15551L19.6082 8.05755C19.8612 8.30653 20 8.64531 20 9.00041C20 9.35551 19.8612 9.69429 19.6082 9.94326L12.7061 16.8453Z" fill="currentColor"/>
</svg>